<svg t="1605076181658" class="icon" viewBox="0 0 1024 1024" version="1.1" xmlns="http://www.w3.org/2000/svg" p-id="46985" width="256" height="256"><path d="M640 135.68c0-71.68-56.32-128-128-128s-128 56.32-128 128 56.32 128 128 128 128-56.32 128-128z m-128 46.08c-28.16 0-48.64-23.04-48.64-48.64 0-28.16 23.04-48.64 48.64-48.64s48.64 23.04 48.64 48.64-20.48 48.64-48.64 48.64zM128 601.6c-71.68 0-128 56.32-128 128s56.32 128 128 128 128-56.32 128-128-56.32-128-128-128z m0 174.08c-28.16 0-48.64-23.04-48.64-48.64 0-28.16 23.04-48.64 48.64-48.64s48.64 23.04 48.64 48.64-20.48 48.64-48.64 48.64z m768-174.08c-71.68 0-128 56.32-128 128s56.32 128 128 128 128-56.32 128-128-56.32-128-128-128z m5.12 174.08c-28.16 0-48.64-23.04-48.64-48.64 0-28.16 23.04-48.64 48.64-48.64s48.64 23.04 48.64 48.64c0 28.16-23.04 48.64-48.64 48.64z m-622.08 61.44l-58.88 64c81.92 66.56 184.32 104.96 291.84 104.96s209.92-38.4 291.84-104.96l-58.88-64C670.72 890.88 604.16 921.6 512 921.6c-89.6 0-158.72-33.28-232.96-84.48z m691.2-289.28c0-176.64-104.96-340.48-263.68-414.72l-28.16 79.36c130.56 71.68 207.36 184.32 207.36 335.36h84.48zM320 133.12l33.28 79.36c-138.24 64-207.36 181.76-207.36 335.36H53.76c0-176.64 104.96-340.48 266.24-414.72z m348.16 371.2h38.4c12.8 0 20.48 12.8 20.48 25.6v43.52c0 12.8-10.24 25.6-20.48 25.6h-38.4c-2.56 7.68-7.68 23.04-15.36 35.84l28.16 25.6c7.68 7.68 7.68 23.04 0 30.72l-30.72 30.72c-7.68 7.68-23.04 7.68-30.72 0l-25.6-28.16c-10.24 7.68-28.16 12.8-35.84 15.36v38.4c0 12.8-12.8 23.04-25.6 23.04h-43.52c-12.8 0-25.6-10.24-25.6-23.04v-38.4c-7.68-2.56-23.04-7.68-35.84-15.36l-25.6 28.16c-7.68 7.68-23.04 7.68-30.72 0L340.48 691.2c-7.68-7.68-7.68-23.04 0-30.72l28.16-25.6c-7.68-12.8-12.8-28.16-15.36-35.84h-38.4c-12.8 0-20.48-12.8-20.48-25.6v-43.52c0-12.8 10.24-25.6 20.48-25.6h38.4c2.56-7.68 7.68-23.04 15.36-35.84l-28.16-25.6c-7.68-7.68-7.68-23.04 0-30.72l30.72-30.72c7.68-7.68 23.04-7.68 30.72 0l25.6 28.16c10.24-7.68 28.16-12.8 35.84-15.36v-38.4c0-12.8 12.8-23.04 25.6-23.04h43.52c12.8 0 25.6 10.24 25.6 23.04v38.4c7.68 2.56 23.04 7.68 35.84 15.36l25.6-28.16c7.68-7.68 23.04-7.68 30.72 0l30.72 30.72c7.68 7.68 7.68 23.04 0 30.72l-28.16 25.6c7.68 12.8 12.8 28.16 15.36 35.84zM409.6 550.4c0 58.88 46.08 104.96 104.96 104.96s104.96-48.64 104.96-104.96c0-58.88-46.08-104.96-104.96-104.96-58.88-2.56-104.96 46.08-104.96 104.96z" fill="#1296db" p-id="46986"></path></svg>