<?xml version="1.0" standalone="no"?><!DOCTYPE svg PUBLIC "-//W3C//DTD SVG 1.1//EN" "http://www.w3.org/Graphics/SVG/1.1/DTD/svg11.dtd"><svg t="1622515764313" class="icon" viewBox="0 0 1024 1024" version="1.1" xmlns="http://www.w3.org/2000/svg" p-id="1483" width="128" height="128" xmlns:xlink="http://www.w3.org/1999/xlink"><defs><style type="text/css"></style></defs><path d="M438.155169 927.937689H194.197099c-44.037772 0-80.176818-35.825898-80.559999-79.860668l-3.493648-400.33483c-0.197093-22.532628-19.351128-42.937253-41.826728-44.557017l-4.486116-0.323152c-33.233676-2.39513-43.284416-18.662803-46.316847-28.147277s-4.286022-28.565474 21.39109-49.798489l35.899933-29.687002c25.825181-21.356073 69.086587-54.4857 96.438488-73.853836L436.559416 33.507805c15.982539-11.317338 36.834374-17.549278 58.716696-17.549278 23.254969 0 45.194317 6.91126 61.776138 19.46218l157.626349 119.301272c26.264388 19.878376 69.467767 51.578328 96.306426 70.663331L1000.821567 360.379984c5.437565 3.577688 9.025257 9.732591 9.025257 16.72789 0 11.051213-8.958225 20.009438-20.009438 20.009438h-0.017008c-0.092043 0-0.182086 0-0.273129-0.002001l-72.017969-0.969457c-10.427919 0-20.196526 4.058915-27.505974 11.42839-7.310448 7.368476-11.288324 17.177102-11.204285 27.620028l3.341576 411.629157c0.173082 21.333062-8.021784 41.459556-23.073883 56.672732-15.0531 15.214176-35.091552 23.622142-56.425615 23.676167l-244.395276 0.61429c-33.100613 0.08404-86.981027 0.151071-120.110654 0.151071zM58.328012 361.662589c2.006947 0.525248 4.763247 1.022482 8.378952 1.283605l4.486116 0.323153c43.16536 3.110467 78.589069 40.848267 78.967248 84.123679l3.493647 400.33483c0.193091 22.161453 18.38167 40.190957 40.543124 40.190957H438.155169c33.102614 0 86.937006-0.067032 120.005604-0.151071l244.396277-0.61429c10.603001-0.027013 20.573704-4.21799 28.079244-11.803567 7.50454-7.585578 11.590467-17.600302 11.504427-28.201302l-3.341576-411.629157c-0.172081-21.191996 7.92874-41.124398 22.808758-56.126474 15.136139-15.259197 35.44772-23.547107 57.005888-23.25797l7.319453 0.099046-138.143159-98.235335c-27.105785-19.276092-70.738366-51.290193-97.264878-71.366662L532.899858 67.329758c-9.531496-7.214403-23.244964-11.352355-37.623746-11.352355-13.472355 0-26.445474 3.713752-35.590788 10.190807L194.36818 254.034823c-26.677583 18.88991-68.873486 51.205152-94.062368 72.033977l-35.899933 29.687003c-2.792317 2.31009-4.74824 4.315035-6.077867 5.906786z" p-id="1484" fill="#0076BD"></path><path d="M374.929347 529.861925c-11.007192 0.001-19.955413-8.896196-20.007438-19.914393l-0.671316-142.190068a20.009438 20.009438 0 0 1 10.688041-17.799396l117.712523-61.977233a20.002435 20.002435 0 0 1 16.363718-1.023483l127.527152 47.953619a20.011439 20.011439 0 0 1 12.967116 18.729834v153.836562c0 11.051213-8.958225 20.009438-20.009438 20.009438s-20.009438-8.958225-20.009438-20.009438V367.493339l-106.148068-39.914827-99.016704 52.13359 0.61429 130.046341c0.052025 11.050212-8.864181 20.051458-19.914393 20.103482h-0.096045z" p-id="1485" fill="#0076BD"></path><path d="M380.450951 787.032227c-2.380123 0-4.766248-0.4242-7.042322-1.280604L245.879476 737.798004a20.009438 20.009438 0 0 1-12.967116-18.728834V565.231608a20.009438 20.009438 0 0 1 12.04168-18.354657l121.711409-52.835922c10.138782-4.400075 21.92234 0.250118 26.322415 10.385899 4.400075 10.136781-0.249118 21.92234-10.386899 26.322416l-109.669729 47.608456v126.856835l106.150069 39.914827 103.334741-54.408663a20.010439 20.010439 0 0 1 25.057819-5.345521l108.660253 57.210985 106.148068-39.915828V575.861622l-110.699215-47.629466c-10.150788-4.36806-14.84-16.137612-10.47294-26.288399s16.139613-14.84 26.2884-10.47194l122.800923 52.836922a20.009438 20.009438 0 0 1 12.101708 18.38067v153.836562a20.009438 20.009438 0 0 1-12.967116 18.728834L621.806794 783.209424a20.006437 20.006437 0 0 1-16.363719-1.023483l-105.420725-55.50518-110.250002 58.047379a19.995431 19.995431 0 0 1-9.321397 2.304087z" p-id="1486" fill="#0076BD"></path><path d="M426.66675 511.49126c-11.051213 0-20.009438-8.958225-20.009438-20.009438v-63.68704a20.009438 20.009438 0 0 1 26.486493-18.93293l64.53544 22.077413c10.455932 3.576687 16.032562 14.953053 12.454875 25.408985-3.575687 10.455932-14.949051 16.032562-25.407985 12.454875l-38.048946-13.01614v35.693837c-0.001 11.052213-8.959226 20.010439-20.010439 20.010438zM368.076114 724.878911c-2.148013 0-4.333044-0.349165-6.479056-1.082511l-64.53444-22.077413a20.009438 20.009438 0 0 1-13.532383-18.93193v-63.68604c0-11.051213 8.958225-20.009438 20.009438-20.009438s20.009438 8.958225 20.009439 20.009438v49.383293l51.002056 17.44823c10.455932 3.577688 16.032562 14.953053 12.454875 25.408985-2.842341 8.308919-10.612005 13.537385-18.929929 13.537386zM610.261348 714.703111c-2.148013 0-4.332043-0.348164-6.479056-1.082511l-64.53544-22.077413a20.009438 20.009438 0 0 1-13.532383-18.93193v-63.68704c0-11.051213 8.958225-20.009438 20.009438-20.009438s20.009438 8.958225 20.009438 20.009438v49.384294l51.003057 17.44823c10.455932 3.577688 16.032562 14.953053 12.454875 25.408985-2.842341 8.308919-10.613006 13.537385-18.929929 13.537385zM496.879868 724.872908c-11.051213 0-20.009438-8.958225-20.009438-20.009438V576.57696c0-11.051213 8.958225-20.009438 20.009438-20.009438s20.009438 8.958225 20.009438 20.009438v128.28751c0 11.050212-8.959226 20.008438-20.009438 20.008438z" p-id="1487" fill="#0076BD"></path></svg>