<?xml version="1.0" standalone="no"?><!DOCTYPE svg PUBLIC "-//W3C//DTD SVG 1.1//EN" "http://www.w3.org/Graphics/SVG/1.1/DTD/svg11.dtd"><svg t="1582181195147" class="icon" viewBox="0 0 1024 1024" version="1.1" xmlns="http://www.w3.org/2000/svg" p-id="20260" xmlns:xlink="http://www.w3.org/1999/xlink" width="200" height="200"><defs><style type="text/css"></style></defs><path d="M299.344 192c26.496 0 48-21.504 48-48L347.344 48c0-26.496-21.504-48-48-48-26.528 0-48 21.504-48 48l0 96C251.344 170.496 272.816 192 299.344 192z" p-id="20261" fill="#1734eb"></path><path d="M724.656 192c26.528 0 48-21.504 48-48L772.656 48c0-26.496-21.472-48-48-48-26.496 0-48 21.504-48 48l0 96C676.656 170.496 698.16 192 724.656 192z" p-id="20262" fill="#1734eb"></path><path d="M944 144l0 832L80 976 80 144l91.344 0 0 16c0 61.744 50.256 112 112 112l32 0c61.744 0 112-50.256 112-112L427.344 144l169.312 0 0 16c0 61.744 50.256 112 112 112l32 0c61.744 0 112-50.256 112-112L852.656 144 944 144M960 96l-155.344 0 0 64c0 35.344-28.656 64-64 64l-32 0c-35.344 0-64-28.656-64-64L644.656 96 379.344 96l0 64c0 35.344-28.656 64-64 64l-32 0c-35.344 0-64-28.656-64-64L219.344 96 64 96C46.336 96 32 110.336 32 128l0 864c0 17.664 14.336 32 32 32l896 0c17.664 0 32-14.336 32-32L992 128C992 110.336 977.664 96 960 96L960 96z" p-id="20263" fill="#1296db"></path><path d="M728.672 407.024c-7.872 13.28-43.84 47.12-43.84 47.12-85.792 77.872-132.688 189.12-140.608 333.68l-0.4 0c0.08 1.312 0.384 2.56 0.384 3.888 0 36.16-29.296 65.488-65.456 65.488-36.192 0-65.504-29.328-65.504-65.488 0-1.328 0.336-2.576 0.416-3.888L413.12 787.824c9.52-123.936 58.752-232.752 147.76-326.512L339.248 461.312c-28.32 0-51.248-22.96-51.248-51.248s22.944-51.248 51.248-51.248l345.584 0C684.832 358.832 759.104 355.664 728.672 407.024z" p-id="20264" fill="#1296db"></path></svg>