<?xml version="1.0" standalone="no"?><!DOCTYPE svg PUBLIC "-//W3C//DTD SVG 1.1//EN" "http://www.w3.org/Graphics/SVG/1.1/DTD/svg11.dtd"><svg t="1574749855164" class="icon" viewBox="0 0 1024 1024" version="1.1" xmlns="http://www.w3.org/2000/svg" p-id="473" width="64" height="64" xmlns:xlink="http://www.w3.org/1999/xlink"><defs><style type="text/css"></style></defs><path d="M997.338191 321.654154h-95.901539a25.245538 25.245538 0 0 0-12.563692 3.505231l-43.204923-133.71077C831.883422 115.436308 779.659422 78.769231 715.620037 78.769231H309.407114C235.836652 78.769231 191.174498 128 179.359114 191.409231L135.957268 325.513846a25.796923 25.796923 0 0 0-13.272616-3.859692H26.704345a26.624 26.624 0 0 0-18.904616 8.073846 27.529846 27.529846 0 0 0-7.798154 19.298462v23.867076a27.096615 27.096615 0 0 0 26.70277 27.372308l36.352 6.380308a175.655385 175.655385 0 0 0-18.038154 79.950769l-13.390769 157.774769c0 4.686769 0.275692 9.334154 0.866461 13.942154-0.551385 2.953846-0.866462 5.907692-0.866461 8.900923v189.715693c-0.078769 12.918154 4.923077 25.324308 13.863384 34.500923 8.940308 9.176615 21.110154 14.375385 33.792 14.414769h72.782769c12.681846-0.078769 24.812308-5.238154 33.752616-14.414769 8.940308-9.176615 13.902769-21.582769 13.863384-34.500923V795.963077h625.506462v60.967385c0 12.918154 4.962462 25.324308 13.902769 34.500923 8.940308 9.176615 21.110154 14.375385 33.792 14.414769h72.782769c12.681846-0.039385 24.851692-5.238154 33.792-14.414769 8.940308-9.176615 13.942154-21.582769 13.863385-34.500923V667.175385c0-2.993231-0.315077-5.947077-0.866462-8.900923 0.551385-4.608 0.827077-9.255385 0.866462-13.942154l-13.469538-157.735385c0-30.72-6.537846-57.028923-18.077539-80.147692l35.564308-6.183385A27.057231 27.057231 0 0 0 1024.001575 372.854154v-23.788308a27.451077 27.451077 0 0 0-7.719384-19.337846 26.545231 26.545231 0 0 0-18.944-8.073846zM211.378806 293.572923l31.744-86.724923 0.472616-2.048c3.150769-17.526154 10.24-20.637538 20.637538-34.225231H761.306191c10.515692 13.942154 17.092923 17.486769 19.968 34.028308l32.216615 88.930461 11.815385 48.324924c-2.678154 35.367385-44.110769 63.291077-78.532923 63.291076h-468.676923c-34.540308 0-75.972923-27.923692-78.611693-63.291076l11.85477-48.285539z m22.252308 412.514462c-39.857231 0-72.152615-33.161846-72.152616-74.082462 0-40.920615 32.295385-74.082462 72.152616-74.082461 39.896615 0 72.152615 33.083077 72.152615 74.043076 0 40.999385-32.295385 74.121846-72.152615 74.121847z m403.140923-54.665847c0.039385 5.789538-2.205538 11.421538-6.262154 15.517539a21.385846 21.385846 0 0 1-15.241846 6.498461h-202.476308a21.740308 21.740308 0 0 1-21.425231-22.055384v-61.991385a22.055385 22.055385 0 0 1 6.262154-15.478154 21.346462 21.346462 0 0 1 15.202462-6.459077h202.476308c11.894154 0.039385 21.504 9.846154 21.464615 21.937231v62.030769z m154.505846 54.665847c-39.857231 0-72.192-33.201231-72.192-74.082462 0-40.96 32.334769-74.121846 72.192-74.121846 39.896615 0 72.192 33.122462 72.192 74.121846 0 40.96-32.295385 74.043077-72.192 74.043077z" fill="#1296db" p-id="474"></path></svg>