<?xml version="1.0" standalone="no"?><!DOCTYPE svg PUBLIC "-//W3C//DTD SVG 1.1//EN" "http://www.w3.org/Graphics/SVG/1.1/DTD/svg11.dtd"><svg t="1600137166442" class="icon" viewBox="0 0 1453 1024" version="1.1" xmlns="http://www.w3.org/2000/svg" p-id="8423" data-spm-anchor-id="a313x.7781069.0.i27" xmlns:xlink="http://www.w3.org/1999/xlink" width="363.25" height="256"><defs><style type="text/css"></style></defs><path d="M470.643613 455.845161l0.528516-189.208774h-4.492387A186.103742 186.103742 0 0 0 284.077419 455.845161z" fill="#8BAEF7" p-id="8424"></path><path d="M505.723871 303.896774v187.028645H318.827355a200.241548 200.241548 0 0 0 194.295742 198.523871 191.124645 191.124645 0 0 0 191.124645-191.124645A200.307613 200.307613 0 0 0 505.723871 303.896774z" fill="#467CFD" p-id="8425"></path><path d="M845.625806 260.029935h264.258065v92.490323h-264.258065zM845.625806 435.100903h264.258065v92.490323h-264.258065zM845.625806 610.171871h264.258065v92.490323h-264.258065z" fill="#8BAEF7" p-id="8426"></path><path d="M1420.387097 918.296774h-42.941936V66.064516a66.064516 66.064516 0 0 0-66.064516-66.064516h-1149.52258a66.064516 66.064516 0 0 0-66.064517 66.064516v852.232258H33.032258a33.032258 33.032258 0 0 0-33.032258 33.032258v39.63871a33.032258 33.032258 0 0 0 33.032258 33.032258h1387.354839a33.032258 33.032258 0 0 0 33.032258-33.032258v-39.63871a33.032258 33.032258 0 0 0-33.032258-33.032258zM188.283871 92.490323h1096.670968v825.806451h-1096.670968z" fill="#1195db" p-id="8427" data-spm-anchor-id="a313x.7781069.0.i28" class="selected"></path></svg>