<?xml version="1.0" standalone="no"?><!DOCTYPE svg PUBLIC "-//W3C//DTD SVG 1.1//EN" "http://www.w3.org/Graphics/SVG/1.1/DTD/svg11.dtd"><svg class="icon" width="128px" height="128.00px" viewBox="0 0 1024 1024" version="1.1" xmlns="http://www.w3.org/2000/svg"><path d="M752.634034 102.840226 629.45969 102.840226 629.45969 71.716368c0.056282-0.799202 0.094144-1.52268 0.094144-2.284019 0-0.779759-0.037862-1.503237-0.094144-2.281973-1.130753-11.224646-10.379395-19.937075-21.512966-19.937075L455.323675 47.213301c-10.987239 0-19.996426 8.332782-21.404496 19.21462-0.185218 0.989537-0.222057 1.997494-0.222057 3.00545 0 0.99056 0.036839 1.998517 0.222057 3.006474l0 30.401404L302.384423 102.84125l0 122.366955 450.249611 0L752.634034 102.840226z" fill="#1296db" /><path d="M916.33949 142.374638 795.812439 142.374638l0 126.474506L262.043646 268.849144 262.043646 142.374638 137.663848 142.374638c-24.109094 0-43.696198 20.107967-43.696198 44.858674l0 712.218044c0 24.278963 19.142989 43.909046 42.787502 43.909046l781.475408 0c23.642466 0 42.842761-19.633153 42.842761-43.985794L961.07332 188.298574C961.07332 162.919557 941.059498 142.374638 916.33949 142.374638zM197.202872 838.153268c0-80.0645 71.343885-145.586796 170.337503-165.182087l0-55.230905c-46.01194-24.101931-77.69964-74.78424-77.69964-133.420709 0-81.956593 61.875233-148.277068 138.222061-148.277068 11.675924 0 22.979364 1.544169 33.80185 4.492314 57.112766 18.207687 98.695836 74.881454 98.695836 142.077879 0 59.621912-32.764218 110.988814-80.093153 134.580115l0 54.06843c1.946328 0.379647 3.89061 0.782829 5.855358 1.274016 0 0 21.60711 5.611811 21.794375 5.669116 84.629469 25.647123 144.264685 87.554078 144.264685 159.951969L197.202872 838.153268 197.202872 838.153268zM678.658206 758.868527c-27.013237-48.969295-59.483766-90.614787-143.132908-121.131825 14.938224-6.618744 31.204699-11.716856 48.405453-14.989389l-1.039679-48.151673c15.196097-30.03813 30.66951-84.657098 19.86442-130.451074-7.043417-29.715789-21.533432-54.751998-36.07973-78.227666 16.381086-10.388605 43.270503-20.222577 63.543222-20.222577 61.542658 0 111.408369 54.315046 111.408369 121.318066 0 49.009204-26.719548 91.167373-65.061808 110.308315l0 45.544289c80.259952 15.600303 139.687436 70.505797 140.113131 136.006604L678.658206 758.868527 678.658206 758.868527z" fill="#1296db" /></svg>