<?xml version="1.0" standalone="no"?><!DOCTYPE svg PUBLIC "-//W3C//DTD SVG 1.1//EN" "http://www.w3.org/Graphics/SVG/1.1/DTD/svg11.dtd"><svg t="1622515644968" class="icon" viewBox="0 0 1024 1024" version="1.1" xmlns="http://www.w3.org/2000/svg" p-id="2840" width="128" height="128" xmlns:xlink="http://www.w3.org/1999/xlink"><defs><style type="text/css"></style></defs><path d="M896 106.667c12.8 0 21.333 8.533 21.333 21.333v768c0 12.8-8.533 21.333-21.333 21.333H128c-12.8 0-21.333-8.533-21.333-21.333V128c0-12.8 8.533-21.333 21.333-21.333h768m0-64H128c-46.933 0-85.333 38.4-85.333 85.333v768c0 46.933 38.4 85.333 85.333 85.333h768c46.933 0 85.333-38.4 85.333-85.333V128c0-46.933-38.4-85.333-85.333-85.333z" p-id="2841" fill="#0076BD"></path><path d="M174.933 405.333H326.4v294.4c0 12.8 10.667 23.467 23.467 23.467h44.8L364.8 789.333h-61.867c-10.666 0-21.333-2.133-32-6.4-19.2-8.533-36.266-25.6-44.8-44.8-4.266-10.666-6.4-21.333-6.4-32V480h-44.8v-74.667zM300.8 236.8l55.467 123.733H232.533l-55.466-121.6L300.8 236.8z m123.733-2.133h424.534v74.666H725.333v392.534c0 10.666-2.133 23.466-6.4 32-8.533 19.2-25.6 36.266-44.8 44.8-10.666 4.266-21.333 6.4-32 6.4H516.267l34.133-76.8h44.8c6.4 0 12.8-2.134 17.067-6.4 4.266-4.267 6.4-10.667 6.4-17.067V309.333H424.533v-74.666z" p-id="2842" fill="#0076BD"></path></svg>