<?xml version="1.0" standalone="no"?><!DOCTYPE svg PUBLIC "-//W3C//DTD SVG 1.1//EN" "http://www.w3.org/Graphics/SVG/1.1/DTD/svg11.dtd"><svg t="1600135044670" class="icon" viewBox="0 0 1024 1024" version="1.1" xmlns="http://www.w3.org/2000/svg" p-id="11742" width="350" height="350" xmlns:xlink="http://www.w3.org/1999/xlink"><defs><style type="text/css"></style></defs><path d="M512 967.68c-117.76 0-230.4-46.08-312.32-133.12A465.92 465.92 0 0 1 71.68 512v-30.72H0l107.52-107.52 107.52 107.52H143.36v30.72c0 209.92 168.96 378.88 368.64 378.88 107.52 0 209.92-51.2 281.6-133.12l51.2 51.2c-35.84 46.08-87.04 81.92-133.12 107.52-66.56 35.84-128 51.2-199.68 51.2z m302.08-424.96h71.68V512c0-209.92-163.84-378.88-368.64-378.88-107.52 0-209.92 51.2-281.6 133.12l-51.2-51.2c30.72-46.08 81.92-87.04 133.12-112.64 61.44-30.72 128-46.08 194.56-46.08 117.76 0 230.4 46.08 312.32 133.12a465.92 465.92 0 0 1 128 322.56v30.72H1024l-107.52 107.52-102.4-107.52z" fill="#1296db" p-id="11743"></path><path d="M512 732.16c-15.36 0-25.6-5.12-30.72-10.24-5.12-5.12-10.24-10.24-10.24-25.6v-71.68H348.16c-10.24 0-10.24-5.12-15.36-5.12-5.12-5.12-5.12-10.24-5.12-20.48 0-5.12 5.12-10.24 5.12-15.36 5.12-5.12 5.12-5.12 15.36-5.12H445.44c25.6 0 25.6 0 25.6-5.12l5.12-5.12V512H348.16c-5.12 0-10.24 0-15.36-5.12 0-5.12-5.12-10.24-5.12-15.36 0-5.12 5.12-10.24 5.12-15.36 5.12-5.12 5.12-5.12 15.36-5.12H460.8L363.52 348.16c0-5.12-5.12-10.24-5.12-15.36 0-5.12-5.12-10.24-5.12-15.36 0-10.24 5.12-15.36 5.12-20.48 5.12-5.12 10.24-5.12 20.48-10.24 5.12 0 10.24 5.12 15.36 5.12l20.48 20.48L512 455.68l107.52-143.36 15.36-15.36c5.12-5.12 10.24-5.12 15.36-5.12h10.24c5.12 0 5.12 0 10.24 5.12l5.12 5.12c0 5.12 5.12 10.24 5.12 15.36 0 10.24-5.12 15.36-10.24 20.48L563.2 476.16h112.64c5.12 0 10.24 0 15.36 5.12 5.12 5.12 5.12 10.24 5.12 15.36 0 5.12-5.12 10.24-5.12 15.36-5.12 5.12-10.24 5.12-15.36 5.12h-122.88v66.56h122.88c5.12 0 10.24 0 10.24 5.12 5.12 5.12 5.12 10.24 5.12 15.36 0 5.12 0 10.24-5.12 15.36-5.12 5.12-5.12 5.12-10.24 5.12h-122.88v76.8c0 20.48-15.36 30.72-40.96 30.72z" fill="#1296db" p-id="11744"></path></svg>