<?xml version="1.0" standalone="no"?><!DOCTYPE svg PUBLIC "-//W3C//DTD SVG 1.1//EN" "http://www.w3.org/Graphics/SVG/1.1/DTD/svg11.dtd"><svg class="icon" width="256px" height="256.00px" viewBox="0 0 1024 1024" version="1.1" xmlns="http://www.w3.org/2000/svg"><path d="M1001.722764 1024H22.264894a22.215526 22.215526 0 0 1-22.215526-22.215526v-32.311249a22.289578 22.289578 0 0 1 22.215526-22.215526h80.123998V761.338428a44.579156 44.579156 0 0 1 44.554472-44.554473h115.705866a44.579156 44.579156 0 0 1 44.542131 44.542131v185.869903h102.43826V556.535959a44.579156 44.579156 0 0 1 44.54213-44.54213h115.644156a44.54213 44.54213 0 0 1 44.54213 44.54213v390.66003h102.43826V351.745833a44.579156 44.579156 0 0 1 44.542131-44.54213h115.705866A44.579156 44.579156 0 0 1 921.56174 351.745833v595.450156h80.123998a22.289578 22.289578 0 0 1 22.215526 22.215526v32.261881a22.289578 22.289578 0 0 1-22.1785 22.326604z m-179.205245-819.197532h-32.249539a22.215526 22.215526 0 0 1-22.215527-22.215526V138.6002L596.968217 309.598043l4.936784 4.295001-61.845557 61.796189-115.150478-98.871434-288.110692 288.16006-61.894925-61.783847 325.827719-325.827719 0.617098 0.617098 19.450928-19.450927 109.571912 94.05807L706.194555 76.791669H662.269522a22.215526 22.215526 0 0 1-22.215526-22.215526V22.264894a22.289578 22.289578 0 0 1 22.215526-22.215526h160.247997a22.289578 22.289578 0 0 1 22.215526 22.215526v160.260338a22.289578 22.289578 0 0 1-22.215526 22.277236z" fill="#1296db" /></svg>