<svg t="1605075209533" class="icon" viewBox="0 0 1181 1024" version="1.1" xmlns="http://www.w3.org/2000/svg" p-id="17966" width="256" height="256"><path d="M738.46097 577.615113c19.062139 0 34.422127 15.123681 34.422128 33.713204a34.107051 34.107051 0 0 1-34.422128 33.713205H625.190904v28.908286a34.107051 34.107051 0 0 1-34.422128 33.634435 34.107051 34.107051 0 0 1-34.500896-33.634435v-28.908286H443.076582a34.658435 34.658435 0 0 1-29.853515-16.856602 33.083051 33.083051 0 0 1 0-33.713205 34.658435 34.658435 0 0 1 29.853515-16.856602h113.270067v-76.95748H443.076582a34.107051 34.107051 0 0 1-34.500896-33.713204c0-18.589524 15.438757-33.713205 34.500896-33.713205h99.091616l-0.393846-0.236308-98.461462-96.255926a33.161821 33.161821 0 0 1-8.900916-32.610436 34.107051 34.107051 0 0 1 24.418442-23.78829 34.973512 34.973512 0 0 1 33.24059 8.664609l98.461463 96.334695 0.236307 0.315077 0.236308-0.315077 98.461463-96.255926a35.052281 35.052281 0 0 1 48.758116 0c13.390759 13.154451 13.390759 34.500897 0 47.655348l-98.461463 96.255926-0.393846 0.236308h99.091616c19.062139 0 34.500897 15.123681 34.500897 33.713205a34.107051 34.107051 0 0 1-34.500897 33.713204H625.190904v76.95748h113.270066z m393.845851-240.639815H1181.537553v-241.033661C1181.380014 42.851216 1137.269279-0.077981 1082.997321 0.000788H98.461463C44.268274 0.000788 0.157538 42.851216 0 95.941637v241.033661h49.230731C130.678053 336.975298 196.922925 401.723556 196.922925 481.280417c0 79.556862-66.244872 144.383889-147.692194 144.383889H0v241.033661c0.157538 53.090421 44.268274 96.019618 98.540232 95.940849H1083.07609c54.271958 0 98.382694-42.850429 98.540232-95.940849v-241.033661h-49.230732c-81.447322 0-147.692194-64.748258-147.692194-144.383889 0-79.556862 66.244872-144.383889 147.692194-144.383888z" fill="#1296db" p-id="17967"></path></svg>