<svg t="1605075846715" class="icon" viewBox="0 0 1024 1024" version="1.1" xmlns="http://www.w3.org/2000/svg" p-id="37987" width="256" height="256"><path d="M864 128h-704a128 128 0 0 0-128 128v512a128 128 0 0 0 128 128h704a128 128 0 0 0 128-128V256a128 128 0 0 0-128-128z m64 640a64 64 0 0 1-64 64h-704a64 64 0 0 1-64-64V256a64 64 0 0 1 64-64h704a64 64 0 0 1 64 64v512z" fill="#1296db" p-id="37988"></path><path d="M512 512a32 32 0 0 0 0-64H400.32l-1.024-1.088 102.4-102.4a33.472 33.472 0 0 0-47.296-47.296l-102.4 102.4-102.4-102.4a33.472 33.472 0 0 0-47.296 47.296l102.4 102.4L303.68 448H192a32 32 0 0 0 0 64h128v64H192a32 32 0 0 0 0 64h128v96a32 32 0 0 0 64 0V640h128a32 32 0 0 0 0-64H384V512h128zM832 480h-192a32 32 0 0 0 0 64h192a32 32 0 0 0 0-64zM832 608h-192a32 32 0 0 0 0 64h192a32 32 0 0 0 0-64zM832 352h-192a32 32 0 0 0 0 64h192a32 32 0 0 0 0-64z" fill="#1296db" p-id="37989"></path></svg>