<?xml version="1.0" standalone="no"?><!DOCTYPE svg PUBLIC "-//W3C//DTD SVG 1.1//EN" "http://www.w3.org/Graphics/SVG/1.1/DTD/svg11.dtd"><svg t="1605071841973" class="icon" viewBox="0 0 1024 1024" version="1.1" xmlns="http://www.w3.org/2000/svg" p-id="4399" xmlns:xlink="http://www.w3.org/1999/xlink" width="256" height="256"><defs><style type="text/css"></style></defs><path d="M1014.018495 8.701825c-6.142464-5.11872-14.844289-8.189953-23.546113-8.189953H34.295426C25.08173 0.511872 16.379905 3.583104 10.237441 8.701825c-6.654336 5.11872-10.237441 12.284929-10.237441 19.963009v966.414396c0 7.166208 3.583104 14.332417 9.725569 19.963009 6.654336 5.11872 15.356161 8.189953 24.057985 8.189953h441.233692c25.08173 0 45.556611-18.939265 45.556611-42.997251s-20.474881-42.997251-45.556611-42.99725H95.208198v-849.707574h833.327668v418.711323c0 25.08173 21.498625 45.556611 47.604099 45.55661 26.105474 0 47.604099-19.963009 47.604099-45.55661V28.664834c0-7.67808-3.583104-14.844289-9.725569-19.963009z m-341.418645 526.204448h-131.551112V464.779805h131.551112v-51.187203h-113.123719l143.324169-230.342415h-72.173957l-81.387653 141.276681c-21.498625 37.87853-34.807298 63.984004-39.926018 76.268933h-1.535616c-14.332417-30.20045-54.770307-102.886278-120.8018-217.033742H311.218195l141.788553 230.342415H336.811797v51.187203h136.157961v70.126468H336.811797v51.699076h136.157961v101.862534h67.567108v-101.862534h131.551112l0.511872-52.210948z m248.257936 263.614097c-0.511872 0-1.023744 0-2.047489-0.511872-41.973507-8.701825-85.994501-3.071232-79.852037-73.197701 0-2.55936 0.511872-7.67808 1.535617-10.23744l46.580354-47.092227c14.844289-14.844289 14.844289-37.87853 0-53.234692l-16.891777-16.891777c-14.844289-14.844289-37.87853-15.356161-53.234691-0.511872l-226.75931 228.294927c-15.356161 15.356161-14.332417 37.366658 0.511872 53.746563l16.891777 16.891777c14.844289 14.844289 37.366658 14.844289 52.722819 0l49.139715-49.651587c3.583104-2.047488 15.868033 0 17.403649 0 52.722819 2.55936 56.305924 36.342914 65.007748 77.804549l4.094977 19.963009c5.11872 17.915521 14.844289 34.295426 28.664834 48.627843 42.485379 41.973507 113.635591 41.973507 157.144713 0l2.047488-2.047488c44.532867-45.044739 45.044739-116.706823 1.023745-161.23969-16.891777-17.403649-39.926018-28.152962-63.984004-30.712322z m-261.566609 58.353412c-4.094976 4.094976-10.749313 4.094976-14.844289 0l-14.844289-14.844289c-4.094976-4.094976-4.094976-10.237441 0-14.332417l189.392652-190.416396c4.094976-4.094976 10.237441-4.094976 14.332417 0l14.844289 14.844289c4.094976 4.094976 4.094976 10.749313 0 14.844289l-188.88078 189.904524z m295.350163 104.421894l-1.023744 1.023744c-25.08173 23.546113-70.126468 20.474881-98.279431-7.166208-8.701825-8.701825-15.868033-19.451137-19.963009-30.712322l-4.094976-15.868033-1.535616-4.606849c-8.701825-30.20045-19.451137-71.150212-70.126469-79.340164l58.865284-59.377156c6.654336 50.675331 45.556611 62.96026 69.614597 68.590852 4.606848 1.023744 9.725569 2.047488 14.332416 3.583104 1.023744 0.511872 2.047488 0.511872 3.071233 0.511872 15.868033 3.071232 30.20045 10.749313 41.973506 22.52237 30.20045 29.688578 32.75981 75.245189 7.166209 100.83879z" p-id="4400" fill="#1296db"></path></svg>