<?xml version="1.0" standalone="no"?><!DOCTYPE svg PUBLIC "-//W3C//DTD SVG 1.1//EN" "http://www.w3.org/Graphics/SVG/1.1/DTD/svg11.dtd"><svg t="1623914706323" class="icon" viewBox="0 0 1024 1024" version="1.1" xmlns="http://www.w3.org/2000/svg" p-id="2595" width="128" height="128" xmlns:xlink="http://www.w3.org/1999/xlink"><defs><style type="text/css"></style></defs><path d="M684.864646 807.563636H615.434343c-21.333333 0-51.975758-34.00404-51.975757-104.210101s51.975758-86.755556 51.975757-86.755555h69.430303v-30.771717c-32.452525-21.979798-68.913131-38.917172-107.830303-49.260606 67.878788-36.331313 114.165657-107.959596 114.165657-190.189899 0-119.208081-96.969697-215.789899-216.694949-215.789899s-216.694949 96.711111-216.69495 215.789899c0 85.20404 49.648485 158.642424 121.535354 193.810101C234.537374 585.050505 129.292929 719.644444 129.292929 878.80404c0 5.171717 0.129293 10.472727 0.387879 15.515152h565.785859c8.921212-8.662626 6.852525-17.325253 6.852525-17.325253 1.163636-44.606061-17.454545-69.430303-17.454546-69.430303zM796.056566 597.850505l70.852525 64.129293 0.517172 0.517172c15.515152 15.515152 23.919192 36.072727 23.919192 57.923232s-8.533333 42.537374-24.048485 57.923232l-0.905051 0.905051-70.335353 63.741414-35.814142-39.692929 69.818182-63.09495c5.042424-5.30101 7.886869-12.282828 7.886869-19.781818 0-7.369697-2.844444-14.480808-7.886869-19.781818L760.242424 637.414141l35.814142-39.563636z" fill="#0076BD" p-id="2596"></path><path d="M829.414141 748.606061H646.206061c-12.541414 0-22.626263-10.084848-22.626263-22.626263V711.111111c0-12.541414 10.084848-22.626263 22.626263-22.626263h183.20808c12.541414 0 22.626263 10.084848 22.626263 22.626263v14.868687c0 12.541414-10.084848 22.626263-22.626263 22.626263z" fill="#0076BD" p-id="2597"></path></svg>