<?xml version="1.0" standalone="no"?><!DOCTYPE svg PUBLIC "-//W3C//DTD SVG 1.1//EN" "http://www.w3.org/Graphics/SVG/1.1/DTD/svg11.dtd"><svg class="icon" width="500px" height="500.00px" viewBox="0 0 1024 1024" version="1.1" xmlns="http://www.w3.org/2000/svg"><path d="M704.7 256c0-19.3-15.6-34.9-34.9-34.9H271.4c-19.3 0-34.9 15.6-34.9 34.9s15.6 34.9 34.9 34.9h398.4c19.2 0 34.8-15.6 34.9-34.9zM569.5 628c0-19.3-15.6-34.9-34.9-34.9H271.4c-19.3 0-34.9 15.6-34.9 34.9 0 19.3 15.6 34.9 34.9 34.9h263.1c19.3 0 34.9-15.6 35-34.9zM271.4 407.1c-19.3 0-34.9 15.6-34.9 34.9s15.6 34.9 34.9 34.9h332.1c19.2 0 34.8-15.6 34.9-34.9 0-19.3-15.6-34.9-34.9-34.9H271.4z" fill="#1296db" /><path d="M459.4 881.7H282c-1.8 0-3.6 0.1-5.3 0.4H164c-9.5 0-17.3-7.8-17.3-17.3V155.1c0-9.5 7.8-17.3 17.3-17.3h613.1c9.5 0 17.3 7.8 17.3 17.3V332c-0.3 1.9-0.5 3.9-0.5 5.9v103.3c0 19.3 15.6 34.9 34.9 34.9s34.9-15.6 34.9-34.8V337.9c0-1.8-0.1-3.6-0.4-5.3V155.1c0-47.6-38.5-86.1-86.1-86.1H164c-47.6 0-86.1 38.5-86.1 86.1v709.8c0 47.6 38.5 86.1 86.1 86.1h112.1c1.9 0.3 3.9 0.5 5.9 0.5h177.3c19.3 0 35-15.6 35-34.9s-15.6-34.9-34.9-34.9z" fill="#1296db" /><path d="M904.3 820.1c-20.2 0-47.8-8.4-70.2-21.2-23.4-13.3-37.3-29.4-37.5-42.9 0-1.4 0.1-5.6 0.1-13.6 0-7.1 0.1-9.4 2.1-12.8 2.9-5 9.8-12.3 21-23.3 25.8-21.6 40.5-53.2 40.5-86.4 0-30.3-12-58.9-33.7-80.3-21.8-21.4-50.7-33.3-81.5-33.3s-59.7 11.8-81.5 33.3c-21.8 21.4-33.7 49.9-33.7 80.3 0 33.4 14.8 64.8 40.5 86.4 23.2 22.8 23.2 23.4 23.2 38.9v10.5c0 13.5-13.9 29.6-37.4 43-22.5 12.9-50.1 21.3-70.3 21.3-22.6 0-40.9 18.1-40.9 40.3v31.4c0 10.7 8.8 19.4 19.7 19.4h1.6V932c0 10.7 8.8 19.4 19.7 19.4h318.4c10.8 0 19.6-8.7 19.7-19.4v-20.8h1.6c5.3 0 10.3-2.1 14-5.8s5.7-8.5 5.6-13.6v-31.4c-0.2-22.2-18.5-40.3-41-40.3z m1.5 105.2c0 0.6-0.3 1.1-0.6 1.6-0.4 0.4-1 0.6-1.6 0.6h-317c-1.2 0-2.2-1-2.2-2.2v-15.2h321.4v15.2z m0-53H584.2l0.1-11.9c0-0.8 0.7-1.5 1.6-1.5 27.1 0 62.9-10.6 91.2-27.2 36-21 55.8-47.9 55.8-75.9v-10.5c0-11.9-0.4-21.9-6.5-33.1-5.2-9.8-14.2-19.5-28.8-33.9l-0.1-0.1c-0.3-0.3-0.8-0.8-1.2-1-17.3-14.3-27.2-35.1-27.2-57.3 0-41.2 34-74.7 75.9-74.7 41.8 0 75.8 33.6 75.8 74.7 0 22.1-9.8 43-27.1 57.2-0.3 0.3-0.6 0.5-0.8 0.7l-0.5 0.5c-14.5 14.3-23.3 23.7-28.5 32.9-5.6 9.9-6.7 18.9-6.7 31.2 0 7.5-0.1 11.4-0.1 12.7v0.7c0 28 19.8 54.9 55.8 75.9 28.4 16.6 64.2 27.2 91.3 27.2 0.9 0 1.6 0.7 1.6 1.5v11.9z" fill="#1296db" /></svg>